<svg width="113" height="34" viewBox="0 0 113 34" fill="none" xmlns="http://www.w3.org/2000/svg">
<path d="M40.6456 8.66219C40.6456 10.726 40.6456 16.8717 40.6456 19.6424C40.6335 20.1517 40.5655 20.6583 40.4429 21.1532C39.8291 23.7529 37.6633 25.1154 35.0401 25.0185C34.3038 25.005 33.5821 24.8133 32.9388 24.4604C32.2955 24.1074 31.7503 23.6041 31.3513 22.9946C30.6694 22.0129 30.3097 20.8488 30.3206 19.6595C30.3553 16.6494 30.3959 10.5948 30.3785 8.66219H23.5917V9.14108C23.5917 13.0178 23.5917 16.9002 23.5917 20.7769C23.5917 23.9695 24.9931 26.5692 27.2399 28.6786C30.5464 31.7856 34.5884 32.6693 38.9721 31.5633C41.6319 30.8978 43.9591 29.311 45.5273 27.0937C47.1375 24.8793 47.9894 22.2174 47.9594 19.4942C47.9594 16.6095 47.9594 10.726 47.9131 8.69069L40.6456 8.66219Z" fill="black"/>
<path d="M57.4332 10.3725C55.9606 11.4088 54.7626 12.7784 53.9403 14.3659C53.1179 15.9534 52.6952 17.7122 52.7078 19.4942C52.6673 23.274 52.7078 27.0538 52.7078 30.8336C52.7078 31.227 52.7715 31.6203 52.8121 32.0935H58.7245C58.9214 32.0935 59.1183 32.0479 59.4599 32.0137V30.4516C59.4599 27.2419 59.4599 24.0322 59.4599 20.8225C59.4963 20.1617 59.5815 19.5044 59.7147 18.8557C59.8334 17.9582 60.231 17.1188 60.853 16.4524C61.4749 15.786 62.2909 15.3251 63.1892 15.1329C63.7987 14.9623 64.4328 14.8929 65.0654 14.9276V8.00087H64.6717C62.0548 7.9562 59.501 8.79295 57.4332 10.3725Z" fill="black"/>
<path d="M12.398 25.7311C11.7654 25.7659 11.1313 25.6965 10.5218 25.5259C9.62354 25.3337 8.80755 24.8728 8.18558 24.2064C7.5636 23.54 7.16605 22.7006 7.04735 21.8031C6.91409 21.1544 6.82893 20.4971 6.79255 19.8363C6.79255 16.7121 6.79255 9.07837 6.79255 8.66219H0.104159C0.0636229 9.71689 -0.0290321 17.5387 0.0115035 21.1646C-0.0011245 22.9466 0.421557 24.7054 1.24392 26.2929C2.06629 27.8804 3.26424 29.25 4.7368 30.2863C6.81928 31.8537 9.38379 32.6725 12.0043 32.6066H19.9261V25.7653H12.398V25.7311Z" fill="black"/>
<path d="M89.5779 9.99623L84.9047 14.597L80.2316 9.99623C78.9809 8.8273 77.3159 8.18559 75.5915 8.2079C73.8671 8.23021 72.2198 8.91478 71.0008 10.1157C69.7818 11.3166 69.0874 12.9388 69.0658 14.6364C69.0442 16.3341 69.6971 17.9729 70.8852 19.2034L84.9105 33.0057L98.9301 19.2034C100.118 17.9729 100.771 16.3341 100.749 14.6364C100.728 12.9388 100.034 11.3166 98.8145 10.1157C97.5955 8.91478 95.9481 8.23021 94.2238 8.2079C92.4994 8.18559 90.8344 8.8273 89.5837 9.99623H89.5779Z" fill="black"/>
<path d="M111.288 1.70691C111.061 1.48007 110.79 1.29992 110.492 1.17695C110.194 1.05399 109.874 0.990662 109.55 0.990662C109.227 0.990662 108.907 1.05399 108.609 1.17695C108.31 1.29992 108.04 1.48007 107.813 1.70691L106.076 3.41723L104.339 1.70691C103.878 1.25331 103.253 0.998473 102.601 0.998473C101.95 0.998473 101.325 1.25331 100.864 1.70691C100.403 2.16052 100.145 2.77573 100.145 3.41723C100.145 4.05872 100.403 4.67394 100.864 5.12754L106.076 10.2585L111.288 5.12754C111.517 4.90381 111.7 4.63745 111.824 4.34387C111.949 4.0503 112.013 3.73535 112.013 3.41723C112.013 3.09911 111.949 2.78415 111.824 2.49057C111.7 2.197 111.517 1.93064 111.288 1.70691Z" fill="black"/>
</svg>
